HIERARCHY
ROOT Hips
{
	OFFSET 0.000000 0.000000 0.000000
	CHANNELS 6 Xposition Yposition Zposition Zrotation Yrotation Xrotation 
	JOINT LHipJoint
	{
		OFFSET 0.000000 0.000000 0.000000
		CHANNELS 3 Zrotation Yrotation Xrotation
		JOINT LeftUpLeg
		{
			OFFSET 1.363060 -1.794630 0.839290
			CHANNELS 3 Zrotation Yrotation Xrotation
			JOINT LeftLeg
			{
				OFFSET 2.448110 -6.726130 0.000000
				CHANNELS 3 Zrotation Yrotation Xrotation
				JOINT LeftFoot
				{
					OFFSET 2.562200 -7.039590 0.000000
					CHANNELS 3 Zrotation Yrotation Xrotation
					JOINT LeftToeBase
					{
						OFFSET 0.157640 -0.433110 2.322550
						CHANNELS 3 Zrotation Yrotation Xrotation
						End Site
						{
							OFFSET 0.000000 0.000000 0.000000
						}
					}
				}
			}
		}
	}
	JOINT RHipJoint
	{
		OFFSET 0.000000 0.000000 0.000000
		CHANNELS 3 Zrotation Yrotation Xrotation
		JOINT RightUpLeg
		{
			OFFSET -1.305520 -1.794630 0.839290
			CHANNELS 3 Zrotation Yrotation Xrotation
			JOINT RightLeg
			{
				OFFSET -2.542530 -6.985550 0.000000
				CHANNELS 3 Zrotation Yrotation Xrotation
				JOINT RightFoot
				{
					OFFSET -2.568260 -7.056230 0.000000
					CHANNELS 3 Zrotation Yrotation Xrotation
					JOINT RightToeBase
					{
						OFFSET -0.164730 -0.452590 2.363150
						CHANNELS 3 Zrotation Yrotation Xrotation
						End Site
						{
							OFFSET 0.000000 0.000000 0.000000
						}
					}
				}
			}
		}
	}
}
MOTION
Frames: 28
Frame Time: 0.008333
0.364702 17.040407 0.243033 -59.207957 84.612479 -26.810629 -12.136165 4.148366 -2.541978 0.569550 10.905636 0.778010 -0.085413 1.648563 29.825411 2.366695 15.899476 14.656060 5.312000 0.000001 -36.083500 7.498976 -0.144990 5.534456 12.743731 10.890665 -58.221964 5.014623 0.971439 5.518276 0.701475 1.622790 6.617131 -0.604600 -0.000000 -58.624900
0.675955 16.934659 0.296649 -50.273877 83.548197 -18.515284 -12.115635 4.474518 -2.860655 0.698338 12.092731 1.159461 -0.176292 1.987960 33.226516 2.484138 16.562733 14.212784 5.421500 0.000000 -35.906800 7.580511 -0.024809 5.387492 13.793920 11.410150 -58.217712 4.974251 0.652617 7.500839 0.647215 1.223943 6.933669 -0.740700 0.000000 -56.827600
0.986641 16.819590 0.348764 -43.568145 82.564201 -12.435422 -12.196606 4.746810 -3.170010 0.884299 13.290500 1.376535 -0.217541 2.323190 36.793981 2.596577 17.275820 13.717246 5.534500 -0.000000 -35.537201 7.569127 -0.004667 5.271374 14.615068 11.986920 -58.368914 4.828558 0.248970 10.182370 0.534015 0.676026 6.817024 -0.912800 0.000000 -54.405699
1.296410 16.696927 0.398811 -38.638422 81.706357 -8.126791 -12.315669 4.958813 -3.457149 1.138957 14.434300 1.443591 -0.199872 2.647746 40.505107 2.710733 18.066772 13.171605 5.658800 -0.000000 -35.048600 7.515301 -0.048276 5.166440 15.237831 12.564490 -58.687007 4.576342 -0.233113 13.563681 0.376237 0.100132 6.201242 -1.064600 0.000000 -51.372800
1.604640 16.568840 0.446403 -34.983693 80.994298 -5.102062 -12.438747 5.117808 -3.710982 1.452764 15.474507 1.376478 -0.124882 2.961803 44.330660 2.832044 18.948830 12.592417 5.799300 0.000000 -34.550900 7.454464 -0.108509 5.041218 15.697793 13.072161 -59.146372 4.229755 -0.773829 17.604582 0.194146 -0.387735 5.058931 -1.142600 -0.000000 -47.792900
1.910616 16.437910 0.491533 -32.200168 80.441170 -2.968274 -12.553165 5.232802 -3.924966 1.809114 16.378730 1.176461 0.002209 3.267507 48.250642 2.961388 19.907025 11.983217 5.947100 0.000000 -34.001100 7.408115 -0.146763 4.873427 16.014967 13.448168 -59.696578 3.810471 -1.340221 22.193843 0.005593 -0.722282 3.408154 -1.119400 0.000000 -43.777500
2.213545 16.307138 0.534210 -30.033534 80.052246 -1.477314 -12.655565 5.308873 -4.099195 2.193748 17.122207 0.843419 0.176520 3.566699 52.240148 3.098206 20.918855 11.366822 6.098000 -0.000001 -33.475800 7.389585 -0.140593 4.651127 16.216972 13.640929 -60.256007 3.353595 -1.892804 27.135056 -0.174260 -0.882940 1.313792 -0.997300 0.000000 -39.521100
2.512642 16.179763 0.574381 -28.389278 79.819281 -0.527504 -12.746920 5.348253 -4.239367 2.607058 17.699780 0.357068 0.392168 3.862387 56.282589 3.238364 21.940980 10.750529 6.237400 0.000000 -32.973200 7.405504 -0.087363 4.381184 16.342818 13.636149 -60.740336 2.901050 -2.397552 32.182341 -0.337704 -0.897743 -1.124936 -0.805000 0.000000 -35.298000
2.807387 16.059075 0.611870 -27.286241 79.720580 -0.119907 -12.830300 5.352005 -4.353347 3.058962 18.120053 -0.313549 0.643244 4.158240 60.360263 3.375972 22.922028 10.135553 6.347800 0.000001 -32.452900 7.456361 -0.001274 4.079134 16.450173 13.445218 -61.079074 2.492178 -2.836558 37.096770 -0.482562 -0.810837 -3.797910 -0.579100 0.000000 -31.411700
3.097398 15.948091 0.646451 -26.798736 79.726646 -0.308066 -12.909422 5.320491 -4.447762 3.560532 18.400053 -1.203021 0.925014 4.457192 64.450654 3.504734 23.811757 9.518909 6.412200 0.000001 -31.912900 7.537341 0.094254 3.760185 16.604537 13.090924 -61.224678 2.153978 -3.208448 41.688379 -0.611129 -0.664181 -6.602099 -0.349600 0.000000 -28.117699
3.382551 15.849327 0.677835 -27.015022 79.806981 -1.160760 -12.987155 5.253388 -4.526439 4.118510 18.562249 -2.340889 1.234452 4.759952 68.524881 3.618338 24.562593 8.883058 6.411100 0.000000 -31.263300 7.640072 0.174432 3.436034 16.862369 12.598263 -61.153852 1.898140 -3.521286 45.827653 -0.728808 -0.492148 -9.446419 -0.135200 0.000000 -25.579400
3.662850 15.764609 0.705950 -27.986670 79.933764 -2.716623 -13.064420 5.148307 -4.590941 4.727334 18.628577 -3.741989 1.569860 5.063139 72.542234 3.712630 25.143230 8.219239 6.334300 -0.000000 -30.530000 7.754696 0.218309 3.112836 17.260679 11.985298 -60.861499 1.724451 -3.785548 49.438420 -0.841082 -0.316746 -12.249244 0.056300 0.000000 -23.857100
3.938495 15.694891 0.730830 -29.706668 80.080628 -4.962200 -13.140516 5.002072 -4.641461 5.371401 18.622403 -5.404938 1.928977 5.360212 76.454116 3.784747 25.532908 7.508668 6.173300 0.000000 -29.662500 7.871306 0.210973 2.794636 17.811900 11.265339 -60.354518 1.625459 -4.009493 52.483254 -0.951703 -0.150517 -14.933345 0.223899 0.000000 -22.942600
4.209666 15.640397 0.752754 -32.071228 80.220707 -7.795385 -13.214183 4.812073 -4.678305 6.022842 18.568543 -7.309590 2.307028 5.642672 80.203192 3.834026 25.728837 6.743156 5.929900 -0.000000 -28.715500 7.980832 0.145053 2.483779 18.504362 10.447781 -59.646249 1.590362 -4.197768 54.953910 -1.060481 0.006644 -17.426377 0.368600 -0.000000 -22.766600
4.476672 15.600542 0.772215 -34.843756 80.323503 -10.987037 -13.284217 4.580056 -4.703861 6.643246 18.498188 -9.418752 2.695266 5.903782 83.728407 3.860431 25.737655 5.903006 5.605400 -0.000000 -27.608099 8.076595 0.022949 2.181725 19.303115 9.542830 -58.752574 1.606636 -4.351072 56.866541 -1.162691 0.167184 -19.663077 0.489300 -0.000000 -23.231300
4.739782 15.574291 0.789840 -37.689022 80.357717 -14.212800 -13.348034 4.312616 -4.721657 7.190356 18.443208 -11.683027 3.080815 6.139953 86.965834 3.865766 25.583633 5.003263 5.219800 0.000000 -26.515000 8.156139 -0.143146 1.889249 20.158660 8.566046 -57.688621 1.662037 -4.467227 58.255130 -1.250336 0.353104 -21.593981 0.581000 0.000000 -24.182800
4.999313 15.560234 0.806558 -40.168748 80.292402 -17.047646 -13.399769 4.024195 -4.738983 7.617973 18.443045 -14.044836 3.448224 6.353251 89.858030 3.850693 25.288774 4.030270 4.780700 0.000000 -25.323600 8.223971 -0.330634 1.606723 21.006142 7.539965 -56.468789 1.744132 -4.542371 59.170962 -1.313471 0.592881 -23.187449 0.635000 -0.000000 -25.464300
5.255558 15.556933 0.823162 -41.908465 80.105900 -19.127220 -13.430833 3.730257 -4.762759 7.890377 18.529849 -16.449634 3.781488 6.546939 92.356190 3.817243 24.884052 3.008242 4.311100 0.000000 -24.196100 8.288446 -0.515374 1.336130 21.783878 6.497484 -55.107336 1.842338 -4.573626 59.671362 -1.344136 0.909571 -24.434249 0.642600 0.000000 -26.909700
5.508789 15.563014 0.840595 -42.589259 79.785692 -20.140389 -13.433034 3.447911 -4.800543 7.972137 18.730413 -18.849256 4.065519 6.724832 94.425218 3.767070 24.396151 1.950459 3.826500 -0.000000 -23.152800 8.359459 -0.672945 1.080842 22.425084 5.478140 -53.622050 1.946206 -4.559433 59.822649 -1.337717 1.318263 -25.348966 0.598500 0.000000 -28.379200
5.759430 15.577362 0.859124 -42.195264 79.333162 -20.071875 -13.405537 3.183182 -4.856050 7.861194 19.053941 -21.212639 4.289182 6.887658 96.050939 3.701014 23.837801 0.855106 3.332200 0.000000 -22.120700 8.437011 -0.795509 0.847835 22.895464 4.528552 -52.029618 2.049211 -4.502081 59.677891 -1.296669 1.810381 -25.963456 0.506100 0.000000 -29.784101
6.007763 15.599100 0.879569 -40.691197 78.753041 -18.882193 -13.351729 2.944053 -4.930763 7.529931 19.496725 -23.522404 4.442446 7.035046 97.226778 3.622131 23.233988 -0.244953 2.847500 0.000000 -21.231300 8.519611 -0.873167 0.644803 23.143354 3.695902 -50.359515 2.143065 -4.404028 59.300360 -1.227589 2.367574 -26.333404 0.374400 -0.000000 -31.062700
6.254269 15.627708 0.901959 -38.316379 78.061652 -16.800191 -13.281170 2.724957 -5.020593 6.984135 20.033157 -25.780478 4.520764 7.163424 97.965963 3.532178 22.592689 -1.348752 2.375399 -0.000000 -20.408301 8.595653 -0.914121 0.481549 23.156903 3.024642 -48.639140 2.224722 -4.271695 58.731353 -1.142870 2.949240 -26.523837 0.220900 0.000000 -32.187399
6.499450 15.662993 0.926208 -35.366921 77.282350 -14.107606 -13.201854 2.515937 -5.117336 6.233558 20.620462 -28.001015 4.522844 7.266973 98.288979 3.433895 21.924576 -2.443195 1.923400 0.000000 -19.677800 8.653801 -0.931259 0.366991 22.939564 2.549220 -46.896840 2.293922 -4.113099 57.999560 -1.056762 3.505157 -26.603693 0.065699 0.000000 -33.165800
6.743945 15.704979 0.952084 -32.148613 76.445416 -11.095264 -13.116233 2.305867 -5.210057 5.296728 21.203246 -30.202569 4.450715 7.338921 98.220799 3.330559 21.241680 -3.516074 1.497800 0.000000 -19.068000 8.687567 -0.938299 0.306675 22.510882 2.287911 -45.155237 2.353286 -3.936603 57.118001 -0.982563 3.984162 -26.635290 -0.071600 -0.000000 -34.033700
6.988443 15.753990 0.979156 -28.939378 75.585407 -8.027334 -13.020570 2.086071 -5.285190 4.203272 21.719343 -32.404834 4.309453 7.373239 97.788210 3.225582 20.555749 -4.561546 1.102100 0.000000 -18.568800 8.696859 -0.946182 0.302060 21.906258 2.240753 -43.427804 2.407391 -3.748932 56.083564 -0.931004 4.340314 -26.665812 -0.174401 0.000000 -34.821900
7.233746 15.810410 1.006942 -25.935644 74.737209 -5.090134 -12.907880 1.853487 -5.328317 2.990338 22.108038 -34.619086 4.106043 7.366122 97.013453 3.122868 19.881706 -5.570735 0.739599 -0.000000 -18.182600 8.686941 -0.959937 0.348828 21.167780 2.387706 -41.716278 2.460620 -3.553345 54.881086 -0.908260 4.542236 -26.717910 -0.231300 0.000000 -35.566300
7.480709 15.874725 1.034914 -23.255022 73.934180 -2.395991 -12.772095 1.609694 -5.324874 1.702002 22.314149 -36.845113 3.848630 7.316036 95.911490 3.026617 19.236382 -6.532338 0.413700 0.000000 -17.910500 8.664873 -0.979843 0.437542 20.339137 2.691611 -40.011256 2.516004 -3.349492 53.487123 -0.915615 4.576770 -26.786880 -0.236900 -0.000000 -36.280200
7.730095 15.947400 1.062570 -20.935834 73.206856 0.014831 -12.610906 1.359299 -5.262753 0.385131 22.293928 -39.065502 3.546052 7.223175 94.490606 2.941203 18.638094 -7.431450 0.127200 -0.000000 -17.744300 8.637281 -1.003377 0.554217 19.457527 3.100122 -38.295251 2.574531 -3.134590 51.874256 -0.948457 4.453771 -26.837145 -0.193400 0.000000 -36.980499
